<svg width="119" height="98" viewBox="0 0 119 98" fill="none" xmlns="http://www.w3.org/2000/svg">
<path d="M112.877 49.5421C112.134 49.5421 111.485 49.3138 110.927 48.8572L61.6296 8.21896C61.0725 7.76235 60.3298 7.45794 59.4942 7.45794C58.7515 7.45794 58.0088 7.68624 57.3589 8.21896L8.06099 48.705C7.50395 49.1616 6.85408 49.3899 6.11136 49.3899C5.36864 49.3899 4.71876 49.1616 4.25456 48.7811C3.69752 48.4006 3.419 47.944 3.419 47.3352C3.32616 46.6502 3.69752 45.9653 4.25456 45.5087L53.274 5.02269C54.9451 3.65286 57.0804 2.89185 59.4014 2.89185C61.7224 2.89185 63.8577 3.65286 65.5288 5.02269L114.827 45.6609C115.384 46.1175 115.662 46.7264 115.662 47.4113C115.662 48.0962 115.198 48.705 114.641 49.0855C114.084 49.3899 113.434 49.5421 112.877 49.5421Z" fill="black"/>
<path d="M74.07 94.9748V91.7785H70.1707V85.9948C70.1707 81.1243 65.3431 77.2431 59.4942 77.2431C53.5524 77.2431 48.8176 81.2004 48.8176 85.9948V91.7785H44.9183V94.9748H22.9153C18.1805 94.9748 14.374 91.8546 14.374 87.9734V48.4767C14.374 47.183 15.5809 46.1937 17.1592 46.1937C18.7375 46.1937 19.9444 47.183 19.9444 48.4767V87.9734C19.9444 89.3432 21.2442 90.4087 22.9153 90.4087H43.2472V86.0709C43.2472 78.689 50.5815 72.7531 59.4942 72.7531C68.4068 72.7531 75.7411 78.7651 75.7411 86.0709V90.4087H96.0731C97.7442 90.4087 99.0439 89.3432 99.0439 87.9734V48.4767C99.0439 47.183 100.251 46.1937 101.829 46.1937C103.407 46.1937 104.614 47.183 104.614 48.4767V87.9734C104.614 91.8546 100.808 94.9748 96.0731 94.9748H74.07Z" fill="black"/>
<path d="M70.1706 94.9748V90.4087H75.741V94.9748H70.1706ZM43.2471 94.9748V90.4087H48.8175V94.9748H43.2471Z" fill="black"/>
<ellipse cx="96.6136" cy="79.0694" rx="14.6507" ry="14.0694" fill="black"/>
<rect x="84.7534" y="67.7944" width="23.7202" height="22.3559" rx="11.1779" fill="black"/>
<path d="M105.547 73.6713L93.2063 85.3022L87.728 80.1394L88.7536 79.1729L93.1833 83.3479L104.499 72.6834C104.848 73.0128 105.198 73.3422 105.547 73.6713Z" fill="white"/>
</svg>
