<svg width="122" height="98" viewBox="0 0 122 98" fill="none" xmlns="http://www.w3.org/2000/svg">
<path d="M111.697 70.0063H103.631C104.118 67.9963 104.369 65.937 104.369 63.8548C104.369 49.4453 92.6622 37.7222 78.2729 37.7222C68.3655 37.7222 59.3991 43.2987 54.9771 52.0675C52.693 51.4276 50.3377 51.1041 47.954 51.1041C41.9963 51.1041 36.1703 53.1685 31.5488 56.9167C27.3909 60.2892 24.3558 64.8953 22.884 70.0063H7.30342C3.32221 70.0063 0.0834961 73.2497 0.0834961 77.2367C0.0834961 81.2236 3.32221 84.4671 7.30365 84.4671H9.13468L13.4582 96.1823C13.7305 96.9193 14.4319 97.4086 15.2164 97.4086H26.0684C27.1038 97.4086 27.9429 96.5684 27.9429 95.5315C27.9429 94.4947 27.1038 93.6545 26.0684 93.6545H16.5217L13.1312 84.4666H105.871L102.48 93.6547H32.5756C31.5402 93.6547 30.7011 94.4949 30.7011 95.5318C30.7011 96.5686 31.5402 97.4088 32.5756 97.4088H103.786C104.571 97.4088 105.272 96.9196 105.544 96.1826L109.868 84.4673H111.697C115.679 84.4673 118.918 81.2239 118.918 77.2369C118.918 73.2497 115.679 70.0063 111.697 70.0063ZM47.9538 54.8582C50.4839 54.8582 52.976 55.2835 55.361 56.1225C56.2931 56.4505 57.3192 55.9975 57.7066 55.0876C61.2266 46.8187 69.2995 41.476 78.2729 41.476C90.5953 41.476 100.62 51.515 100.62 63.8545C100.62 65.944 100.331 68.0077 99.7603 70.006H88.1855C89.0308 68.4337 89.4875 66.6603 89.4875 64.8193C89.4875 58.7784 84.5793 53.8641 78.5461 53.8641C72.5134 53.8641 67.6057 58.7787 67.6057 64.8193C67.6057 66.6603 68.0622 68.4335 68.9075 70.006H26.8079C29.8577 61.1029 38.4001 54.8582 47.9538 54.8582ZM85.7382 64.8195C85.7382 66.7933 84.9416 68.6508 83.5335 70.0063H73.5578C72.1502 68.651 71.3541 66.7933 71.3541 64.8195C71.3541 60.8488 74.58 57.6184 78.5457 57.6184C82.5116 57.6184 85.7382 60.8491 85.7382 64.8195ZM111.697 80.713H108.562H10.44H7.30342C5.38952 80.713 3.83214 79.1537 3.83214 77.2367C3.83214 75.3197 5.38929 73.7601 7.30342 73.7601H24.3314H72.8525H84.2393H101.13H111.697C113.612 73.7601 115.17 75.3197 115.17 77.2367C115.17 79.1537 113.612 80.713 111.697 80.713Z" fill="black"/>
<path d="M73.4751 64.8195C73.4751 67.6195 75.7504 69.8977 78.5474 69.8977C81.343 69.8977 83.6174 67.6195 83.6174 64.8193C83.6174 62.0195 81.343 59.7413 78.5474 59.7413C75.7508 59.7416 73.4751 62.0198 73.4751 64.8195ZM78.5474 63.4956C79.276 63.4956 79.8685 64.0895 79.8685 64.8195C79.8685 65.5496 79.276 66.1436 78.5474 66.1436C77.8177 66.1436 77.224 65.5496 77.224 64.8195C77.224 64.0895 77.8177 63.4956 78.5474 63.4956Z" fill="black"/>
<path d="M78.2957 50.3804C81.131 50.3804 83.8665 51.2169 86.2058 52.7992C87.0637 53.3791 88.229 53.1539 88.8084 52.2944C89.3877 51.4351 89.1623 50.2684 88.3042 49.6883C85.3427 47.6848 81.8816 46.6261 78.2954 46.6261C69.8294 46.6261 62.4544 52.6456 60.7596 60.9391C60.5521 61.955 61.2059 62.9468 62.2202 63.1545C62.3472 63.1806 62.4734 63.1931 62.5981 63.1931C63.4698 63.1929 64.2508 62.5805 64.4326 61.6919C65.772 55.1376 71.6024 50.3804 78.2957 50.3804Z" fill="black"/>
<path d="M51.2859 59.3635C50.1699 59.1483 49.0238 59.0388 47.8796 59.0388C42.9693 59.0388 38.2208 61.0918 34.8511 64.6716C34.1411 65.4262 34.1764 66.6141 34.9293 67.3251C35.2914 67.6668 35.7535 67.8362 36.2149 67.8362C36.713 67.8362 37.2104 67.6384 37.5792 67.2468C40.2823 64.3748 43.9404 62.7931 47.8796 62.7931C48.7864 62.7931 49.6939 62.8794 50.5766 63.0497C51.5936 63.2459 52.5756 62.5798 52.7718 61.5618C52.9679 60.5438 52.3022 59.5594 51.2859 59.3635Z" fill="black"/>
<path d="M39.5385 38.7476C38.8675 40.9349 37.4327 42.3557 37.4255 42.3627C36.677 43.0788 36.6498 44.2667 37.3647 45.0169C37.733 45.4028 38.2263 45.5973 38.7206 45.5973C39.1858 45.5973 39.652 45.4248 40.0153 45.0778C40.0988 44.9976 42.0761 43.0823 43.0646 40.0333C43.9914 37.1746 44.2372 32.7602 40.1453 27.9655C34.7592 21.6546 39.3858 17.2923 39.9401 16.8086C40.7232 16.1369 40.8176 14.9576 40.1504 14.1692C39.4805 13.3785 38.2984 13.2809 37.5084 13.9514C37.3735 14.066 34.1986 16.8093 33.8431 21.2411C33.594 24.3453 34.7557 27.4286 37.2958 30.4046C39.6395 33.1511 40.3938 35.9583 39.5385 38.7476Z" fill="black"/>
<path d="M55.6577 35.914C54.9867 38.1013 53.5518 39.5221 53.5447 39.5293C52.7961 40.2454 52.7692 41.4333 53.4838 42.1831C53.8522 42.5689 54.3454 42.7634 54.8398 42.7634C55.3049 42.7634 55.7712 42.591 56.1344 42.244C56.218 42.1638 58.1952 40.2484 59.1837 37.1995C60.1105 34.3405 60.3563 29.9263 56.2644 25.1314C50.8783 18.8207 55.505 14.4584 56.0592 13.9747C56.8423 13.303 56.9368 12.1235 56.2695 11.3353C55.5997 10.5446 54.4176 10.447 53.6275 11.1176C53.4927 11.2321 50.3178 13.9754 49.9622 18.4072C49.7132 21.5115 50.8748 24.5945 53.4151 27.5705C55.7586 30.3172 56.5132 33.1242 55.6577 35.914Z" fill="black"/>
<path d="M71.5278 25.2416C70.8568 27.4289 69.422 28.8497 69.4148 28.8567C68.6662 29.5728 68.6393 30.7607 69.354 31.511C69.7223 31.8968 70.2155 32.0913 70.7099 32.0913C71.175 32.0913 71.6413 31.9189 72.0045 31.5718C72.0881 31.4917 74.0654 29.5763 75.0539 26.5274C75.9806 23.6686 76.2264 19.254 72.1345 14.4596C66.7484 8.1486 71.3751 3.78674 71.9293 3.30261C72.7124 2.63091 72.8069 1.4516 72.1396 0.663223C71.4698 -0.127476 70.2877 -0.225092 69.4976 0.445445C69.3628 0.560029 66.1879 3.3033 65.8323 7.73512C65.5833 10.8393 66.7449 13.9227 69.285 16.8986C71.6288 19.6451 72.3833 22.4523 71.5278 25.2416Z" fill="black"/>
<path d="M87.8974 28.7063C87.2264 30.8937 85.7916 32.3145 85.7844 32.3217C85.0359 33.0378 85.009 34.2257 85.7236 34.9759C86.0919 35.3617 86.5851 35.5563 87.0795 35.5563C87.5446 35.5563 88.0109 35.3838 88.3742 35.0368C88.4577 34.9566 90.435 33.0412 91.4235 29.9923C92.3503 27.1333 92.5961 22.7189 88.5041 17.9243C83.118 11.6136 87.7447 7.25124 88.299 6.76757C89.0821 6.09587 89.1765 4.91656 88.5092 4.12819C87.8394 3.33749 86.6573 3.23987 85.8673 3.91041C85.7324 4.02499 82.5575 6.76827 82.2019 11.2001C81.9529 14.3043 83.1146 17.3874 85.6547 20.3633C87.9984 23.1096 88.753 25.9168 87.8974 28.7063Z" fill="black"/>
<ellipse cx="107.085" cy="82.5694" rx="14.13" ry="13.5694" fill="black"/>
<rect x="95.646" y="71.6952" width="22.8772" height="21.5614" rx="10.7807" fill="black"/>
<path d="M115.701 77.3631L103.799 88.5808L98.5151 83.6015L99.5042 82.6693L103.777 86.6959L114.69 76.4104C115.027 76.7281 115.364 77.0458 115.701 77.3631Z" fill="white"/>
</svg>
