<svg width="119" height="98" viewBox="0 0 119 98" fill="none" xmlns="http://www.w3.org/2000/svg">
<g clip-path="url(#clip0_368_95)">
<path d="M25.6723 38.6172C24.5962 37.9996 23.2842 37.6068 21.8927 37.6083C20.4994 37.6068 19.1855 37.9996 18.1095 38.6172C16.4897 39.5517 15.3118 40.9368 14.4925 42.5602C13.6769 44.1865 13.2315 46.0731 13.2275 48.0892C13.235 50.7771 14.0204 53.2329 15.4362 55.1533C16.146 56.1112 17.0258 56.9407 18.1093 57.5596C19.1853 58.1787 20.4992 58.5731 21.8925 58.5703C23.2839 58.5733 24.596 58.1787 25.672 57.5596C27.2958 56.6297 28.4718 55.2401 29.2891 53.6199C30.1047 51.9934 30.554 50.104 30.554 48.0892C30.5484 45.4013 29.7649 42.9438 28.3491 41.0251C27.6356 40.0669 26.7562 39.2361 25.6723 38.6172ZM24.4943 53.2314C24.045 53.8366 23.5467 54.2682 23.0976 54.5251C22.6408 54.7789 22.2687 54.8687 21.893 54.8687C21.5153 54.8687 21.1435 54.7789 20.6886 54.5251C20.009 54.1461 19.2273 53.3459 18.6686 52.2116C18.0984 51.0836 17.7398 49.6474 17.7435 48.0892C17.7358 46.011 18.3873 44.1494 19.2879 42.9455C19.7372 42.345 20.2356 41.9103 20.6868 41.655C21.1435 41.3981 21.5153 41.3099 21.893 41.3068C22.2687 41.3099 22.6408 41.3981 23.0976 41.655C23.7734 42.0309 24.5549 42.8325 25.1175 43.9654C25.6839 45.0965 26.0427 46.5312 26.0427 48.0894C26.048 50.1673 25.3967 52.0259 24.4943 53.2314Z" fill="black"/>
<path d="M118.916 42.4687C118.916 39.2144 117.3 36.2418 114.691 34.1108C112.097 31.9785 108.469 30.6476 104.497 30.6507C100.627 30.6476 97.0812 31.9151 94.5061 33.9577C92.7656 35.3319 91.4593 37.0759 90.7345 39.0302H85.6297C85.2899 38.7408 84.9046 38.4067 84.497 38.0477C83.5872 37.243 82.5829 36.3145 82.024 35.7204C79.0942 32.6223 76.3775 29.758 73.3588 27.169C68.8468 23.2818 63.5459 20.0368 56.2851 17.929C49.0209 15.8137 39.9216 14.7643 27.4259 14.7612C26.0969 14.7612 24.7282 14.7736 23.3163 14.7983V14.8014C19.6466 14.8124 16.2296 16.0194 13.411 17.9134C11.2666 19.3433 9.39939 21.1646 7.77585 23.2753C5.34043 26.4447 3.43953 30.2856 2.11982 34.5922C0.805902 38.9018 0.0810547 43.6726 0.0810547 48.705C0.0905708 57.654 2.34658 65.7797 6.23355 71.9247C8.18365 74.9966 10.5548 77.5884 13.411 79.5012C16.2333 81.3922 19.6503 82.6006 23.3221 82.613C24.8041 82.6377 26.2368 82.6486 27.6283 82.6486C36.4332 82.6486 43.5029 82.1766 49.4024 81.2342C53.8276 80.5254 57.5937 79.549 60.886 78.2971C65.8302 76.4277 69.6513 73.9363 72.9174 71.092C76.1549 68.2774 78.9018 65.1467 81.9674 61.7578L85.6977 58.3842H90.7345C91.4593 60.3386 92.7656 62.0827 94.5061 63.4582C97.0812 65.4993 100.627 66.7652 104.497 66.7652C108.469 66.7652 112.097 65.4359 114.691 63.3036C117.3 61.1727 118.916 58.2017 118.916 54.9457C118.916 52.6585 118.1 50.52 116.718 48.7077C118.1 46.8961 118.916 44.7559 118.916 42.4687ZM29.6255 75.4964C28.961 75.9018 28.2965 76.2113 27.6357 76.4838C27.632 76.4838 27.6301 76.4838 27.6283 76.4838C26.2881 76.4838 24.9041 76.4714 23.4713 76.4513L23.4337 76.4465H23.3961C21.6972 76.4435 19.998 75.9311 18.1593 74.718C16.7927 73.8098 15.4105 72.5035 14.1403 70.8494C12.2278 68.3658 10.5703 65.099 9.41679 61.3217C8.26349 57.5413 7.6027 53.2517 7.6027 48.7052C7.59133 40.6304 9.71342 33.3435 12.9073 28.3326C14.493 25.8258 16.3357 23.9024 18.1593 22.6939C19.998 21.4789 21.6972 20.97 23.3961 20.9639H23.4377H23.4755C24.8347 20.939 26.1526 20.9281 27.4266 20.9281C27.4983 20.9281 27.5681 20.9296 27.6401 20.9296C28.2988 21.2006 28.9617 21.513 29.6259 21.9169C32.7672 23.8171 35.8028 27.2634 37.9815 31.8795C40.1714 36.4911 41.5268 42.2506 41.5229 48.7052C41.5303 57.3153 39.1065 64.6827 35.5442 69.7444C33.7675 72.279 31.7174 74.2259 29.6255 75.4964ZM80.7742 52.6788C79.985 53.9183 78.8108 55.3234 77.195 56.8926L76.1454 57.8427L76.0359 57.9635C75.7717 58.2032 75.5338 58.4338 75.2507 58.68L75.33 58.7449C72.8343 61.5102 70.6275 63.963 68.377 66.029C66.5291 67.7294 64.6504 69.1841 62.5003 70.4392C59.2739 72.3178 55.402 73.7972 49.8669 74.851C46.1554 75.555 41.6775 76.0441 36.2633 76.2916C38.9101 73.8636 41.149 70.7501 42.8879 67.0965C45.34 61.9202 46.7862 55.6546 46.7862 48.705C46.7823 39.4374 44.2264 31.3934 40.1089 25.5161C38.9573 23.8757 37.6717 22.4243 36.2842 21.146C40.3069 21.3581 43.8202 21.7156 46.8879 22.2152C50.743 22.8404 53.9144 23.6775 56.6479 24.6912C60.7482 26.2216 63.8991 28.1435 66.9215 30.5932C69.7457 32.8789 72.4453 35.6582 75.4735 38.8582L75.2528 39.03C77.2801 40.7741 79.1019 42.3665 80.3404 43.8969C81.5863 45.4351 82.2471 46.8356 82.2508 48.4015C82.2506 49.6024 81.8541 50.9783 80.7742 52.6788ZM109.318 50.9085C110.606 51.95 111.391 53.3552 111.395 54.9459C111.391 56.5182 110.629 57.9093 109.375 58.9445C108.114 59.9718 106.415 60.5985 104.497 60.6003C102.632 60.5987 100.974 60.003 99.7281 59.0219C98.4859 58.0347 97.6968 56.6915 97.6251 55.1782L97.4816 52.2209H85.9054C86.4643 50.9057 86.7663 49.6289 86.7626 48.4017C86.7663 47.2674 86.5244 46.2028 86.1243 45.1939H97.4814L97.6248 42.2366C97.6965 40.7216 98.4857 39.3799 99.7279 38.3942C100.974 37.4113 102.631 36.8172 104.497 36.8157C106.415 36.8172 108.114 37.4439 109.375 38.4714C110.628 39.5034 111.391 40.8964 111.395 42.4685C111.391 44.0592 110.606 45.4644 109.322 46.5043L106.577 48.7079L109.318 50.9085Z" fill="black"/>
</g>
<ellipse cx="75.6468" cy="73.0694" rx="14.6507" ry="14.0694" fill="black"/>
<rect x="63.7866" y="61.7944" width="23.7202" height="22.3559" rx="11.1779" fill="black"/>
<path d="M84.5799 67.6713L72.2395 79.3022L66.7612 74.1394L67.7868 73.1729L72.2165 77.3479L83.5318 66.6834C83.8813 67.0128 84.2308 67.3422 84.5799 67.6713Z" fill="white"/>
<defs>
<clipPath id="clip0_368_95">
<rect width="118.835" height="97.41" fill="white" transform="translate(0.0810547)"/>
</clipPath>
</defs>
</svg>
