<svg width="110" height="93" viewBox="0 0 110 93" fill="none" xmlns="http://www.w3.org/2000/svg">
<path d="M102.307 31.5858L94.8518 10.5235C92.6227 4.22785 86.3934 0 79.3465 0H29.6534C22.6066 0 16.3773 4.22785 14.1482 10.5235L6.6926 31.5858C2.7686 33.1404 0 36.7936 0 41.0471V66.7016C0 70.5651 2.30535 73.8951 5.66255 75.6447C5.5917 75.9833 5.45 76.2912 5.45 76.6452V87.2251C5.45 90.0625 7.88615 92.356 10.9 92.356H16.35C19.3638 92.356 21.8 90.0625 21.8 87.2251V76.9633H87.2V87.2251C87.2 90.0625 89.6361 92.356 92.65 92.356H98.1C101.114 92.356 103.55 90.0625 103.55 87.2251V76.6452C103.55 76.2912 103.408 75.9782 103.337 75.6447C106.695 73.8951 109 70.5651 109 66.7016V41.0471C109 36.7936 106.231 33.1404 102.307 31.5858ZM10.9 66.7016V41.0471H98.1L98.1109 66.7016H10.9ZM29.6534 10.2618H79.3411C81.69 10.2618 83.7719 11.6676 84.5131 13.7713L90.5408 30.7853H18.4592L24.4814 13.7713C25.2281 11.6676 27.3099 10.2618 29.6534 10.2618Z" fill="black"/>
<path d="M24.5251 61.5706C29.04 61.5706 32.7001 58.1249 32.7001 53.8743C32.7001 49.6237 29.04 46.178 24.5251 46.178C20.0102 46.178 16.3501 49.6237 16.3501 53.8743C16.3501 58.1249 20.0102 61.5706 24.5251 61.5706Z" fill="black"/>
<path d="M84.4748 61.5706C88.9897 61.5706 92.6498 58.1249 92.6498 53.8743C92.6498 49.6237 88.9897 46.178 84.4748 46.178C79.9599 46.178 76.2998 49.6237 76.2998 53.8743C76.2998 58.1249 79.9599 61.5706 84.4748 61.5706Z" fill="black"/>
<ellipse cx="94.6507" cy="71.0694" rx="14.6507" ry="14.0694" fill="black"/>
<rect x="82.7905" y="59.7944" width="23.7202" height="22.3559" rx="11.1779" fill="black"/>
<path d="M103.584 65.6712L91.2434 77.3022L85.7651 72.1394L86.7907 71.1728L91.2204 75.3478L102.536 64.6833C102.885 65.0127 103.235 65.3421 103.584 65.6712Z" fill="white"/>
</svg>
